<svg xmlns="http://www.w3.org/2000/svg" viewBox="0 0 40 40">
  <defs>
    <linearGradient id="lg" x1="0" y1="0" x2="1" y2="1">
      <stop offset="0%" stop-color="#319685"/>
      <stop offset="100%" stop-color="#084F42"/>
    </linearGradient>
  </defs>
  <rect width="40" height="40" rx="12" fill="url(#lg)"/>
  <path d="M13.832 16.568a1 1 0 0 0 1.213-.303l.355-.465A2 2 0 0 1 17 15h3a2 2 0 0 1 2 2v3a2 2 0 0 1-2 2A18 18 0 0 1 2 4a2 2 0 0 1 2-2h3a2 2 0 0 1 2 2v3a2 2 0 0 1-.8 1.6l-.468.351a1 1 0 0 0-.292 1.233 14 14 0 0 0 6.392 6.384" fill="none" stroke="#ffffff" stroke-width="2" stroke-linecap="round" stroke-linejoin="round" transform="translate(8,8)"/>
</svg>
